<?xml version='1.0' encoding='utf-8'?>
<mlt title="Anonymous Submission" version="0.9.8" root="$CURRENTPATH" LC_NUMERIC="de_DE.UTF-8">
 <profile width="1920" display_aspect_den="9" colorspace="709" frame_rate_den="1" description="HD 1080p 30 fps" height="1080" display_aspect_num="16" frame_rate_num="30" progressive="1" sample_aspect_num="1" sample_aspect_den="1"/>
 <producer in="0" out="500" id="black">
  <property name="mlt_type">producer</property>
  <property name="length">15000</property>
  <property name="eof">pause</property>
  <property name="resource">black</property>
  <property name="aspect_ratio">0</property>
  <property name="mlt_service">colour</property>
 </producer>
 <playlist id="black_track">
  <entry in="0" out="2061" producer="black"/>
 </playlist>
 <producer in="0" out="156" id="7_6">
  <property name="mlt_type">producer</property>
  <property name="length">157</property>
  <property name="eof">pause</property>
  <property name="resource">sounds/Intro.flac</property>
  <property name="meta.media.nb_streams">1</property>
  <property name="meta.media.0.stream.type">audio</property>
  <property name="meta.media.0.codec.sample_fmt">s32</property>
  <property name="meta.media.0.codec.sample_rate">44100</property>
  <property name="meta.media.0.codec.channels">2</property>
  <property name="meta.media.0.codec.name">flac</property>
  <property name="meta.media.0.codec.long_name">FLAC (Free Lossless Audio Codec)</property>
  <property name="meta.media.0.codec.bit_rate">0</property>
  <property name="meta.attr.track.markup">1</property>
  <property name="meta.attr.SOFTWARE.markup">FL Studio 11</property>
  <property name="meta.attr.TITLE.markup">amk13131 - Short Dance (Jingle version)</property>
  <property name="seekable">1</property>
  <property name="audio_index">0</property>
  <property name="video_index">-1</property>
  <property name="mute_on_pause">1</property>
  <property name="mlt_service">avformat</property>
 </producer>
 <producer in="0" out="892" id="8_6">
  <property name="mlt_type">producer</property>
  <property name="length">893</property>
  <property name="eof">pause</property>
  <property name="resource">sounds/Outro.flac</property>
  <property name="meta.media.nb_streams">1</property>
  <property name="meta.media.0.stream.type">audio</property>
  <property name="meta.media.0.codec.sample_fmt">s32</property>
  <property name="meta.media.0.codec.sample_rate">44100</property>
  <property name="meta.media.0.codec.channels">2</property>
  <property name="meta.media.0.codec.name">flac</property>
  <property name="meta.media.0.codec.long_name">FLAC (Free Lossless Audio Codec)</property>
  <property name="meta.media.0.codec.bit_rate">0</property>
  <property name="meta.attr.SOFTWARE.markup">FL Studio 11</property>
  <property name="meta.attr.track.markup">2</property>
  <property name="meta.attr.TITLE.markup">amk13131 - Short Dance (Version#1 30-seconds)</property>
  <property name="seekable">1</property>
  <property name="audio_index">0</property>
  <property name="video_index">-1</property>
  <property name="mute_on_pause">1</property>
  <property name="mlt_service">avformat</property>
 </producer>
 <playlist id="playlist0">
  <blank length="15"/>
  <entry in="0" out="156" producer="7_6"/>
  <blank length="997"/>
  <entry in="0" out="892" producer="8_6"/>
 </playlist>
 <producer in="0" out="27" id="9_5">
  <property name="mlt_type">producer</property>
  <property name="length">28</property>
  <property name="eof">pause</property>
  <property name="resource">sounds/whoosh.wav</property>
  <property name="meta.media.nb_streams">1</property>
  <property name="meta.media.0.stream.type">audio</property>
  <property name="meta.media.0.codec.sample_fmt">s16</property>
  <property name="meta.media.0.codec.sample_rate">11024</property>
  <property name="meta.media.0.codec.channels">1</property>
  <property name="meta.media.0.codec.name">pcm_s16le</property>
  <property name="meta.media.0.codec.long_name">PCM signed 16-bit little-endian</property>
  <property name="meta.media.0.codec.bit_rate">176384</property>
  <property name="seekable">1</property>
  <property name="audio_index">0</property>
  <property name="video_index">-1</property>
  <property name="mute_on_pause">1</property>
  <property name="mlt_service">avformat</property>
 </producer>
 <playlist id="playlist1">
  <entry in="5" out="27" producer="9_5"/>
 </playlist>
 <playlist id="playlist2"/>
 <producer in="0" out="810" id="10">
  <property name="mlt_type">producer</property>
  <property name="length">811</property>
  <property name="eof">pause</property>
  <property name="resource">0xffffffff</property>
  <property name="aspect_ratio">1</property>
  <property name="mlt_service">colour</property>
 </producer>
 <playlist id="playlist3">
  <entry in="0" out="147" producer="10"/>
  <blank length="1103"/>
  <entry in="0" out="810" producer="10"/>
 </playlist>
 <producer in="0" out="458" id="13">
  <property name="mlt_type">producer</property>
  <property name="length">459</property>
  <property name="eof">pause</property>
  <property name="resource">0xffff00ff</property>
  <property name="aspect_ratio">1</property>
  <property name="mlt_service">colour</property>
 </producer>
 <playlist id="playlist4">
  <blank length="1370"/>
  <entry in="1" out="458" producer="13"/>
 </playlist>
 <producer in="0" out="1157" id="11">
  <property name="mlt_type">producer</property>
  <property name="length">1158</property>
  <property name="eof">pause</property>
  <property name="resource">0xff8000ff</property>
  <property name="aspect_ratio">1</property>
  <property name="mlt_service">colour</property>
 </producer>
 <producer in="0" out="458" id="12">
  <property name="mlt_type">producer</property>
  <property name="length">459</property>
  <property name="eof">pause</property>
  <property name="resource">0x0000ffff</property>
  <property name="aspect_ratio">1</property>
  <property name="mlt_service">colour</property>
 </producer>
 <playlist id="playlist5">
  <blank length="131"/>
  <entry in="7" out="1157" producer="11"/>
  <blank length="88"/>
  <entry in="1" out="458" producer="12"/>
 </playlist>
 <producer in="0" out="147" id="1">
  <property name="mlt_type">producer</property>
  <property name="length">148</property>
  <property name="eof">pause</property>
  <property name="resource">slideshows/0/.all.png</property>
  <property name="ttl">1</property>
  <property name="aspect_ratio">1</property>
  <property name="progressive">1</property>
  <property name="seekable">1</property>
  <property name="loop">1</property>
  <property name="meta.media.width">1920</property>
  <property name="meta.media.height">1080</property>
  <property name="mlt_service">pixbuf</property>
 </producer>
 <producer in="0" out="1104" id="6">
  <property name="mlt_type">producer</property>
  <property name="length">1105</property>
  <property name="eof">pause</property>
  <property name="resource">slideshows/0/Overlay.png</property>
  <property name="ttl">25</property>
  <property name="aspect_ratio">1</property>
  <property name="progressive">1</property>
  <property name="seekable">1</property>
  <property name="loop">1</property>
  <property name="meta.media.width">1920</property>
  <property name="meta.media.height">1080</property>
  <property name="mlt_service">pixbuf</property>
 </producer>
 <producer in="0" out="810" id="5">
  <property name="mlt_type">producer</property>
  <property name="length">811</property>
  <property name="eof">pause</property>
  <property name="resource">slideshows/1/.all.png</property>
  <property name="ttl">1</property>
  <property name="aspect_ratio">1</property>
  <property name="progressive">1</property>
  <property name="seekable">1</property>
  <property name="loop">1</property>
  <property name="meta.media.width">1920</property>
  <property name="meta.media.height">1080</property>
  <property name="mlt_service">pixbuf</property>
 </producer>
 <playlist id="playlist6">
  <entry in="0" out="146" producer="1"/>
  <entry in="0" out="1103" producer="6"/>
  <entry in="0" out="810" producer="5"/>
 </playlist>
 <tractor title="Anonymous Submission" global_feed="1" in="0" out="2061" id="maintractor">
  <property name="meta.volume">1</property>
  <track producer="black_track"/>
  <track hide="video" producer="playlist0"/>
  <track hide="video" producer="playlist1"/>
  <track hide="video" producer="playlist2"/>
  <track producer="playlist3"/>
  <track producer="playlist4"/>
  <track producer="playlist5"/>
  <track producer="playlist6"/>
  <transition id="transition0">
   <property name="a_track">1</property>
   <property name="b_track">2</property>
   <property name="mlt_type">transition</property>
   <property name="mlt_service">mix</property>
   <property name="always_active">1</property>
   <property name="combine">1</property>
   <property name="internal_added">237</property>
  </transition>
  <transition id="transition1">
   <property name="a_track">1</property>
   <property name="b_track">3</property>
   <property name="mlt_type">transition</property>
   <property name="mlt_service">mix</property>
   <property name="always_active">1</property>
   <property name="combine">1</property>
   <property name="internal_added">237</property>
  </transition>
  <transition id="transition2">
   <property name="a_track">1</property>
   <property name="b_track">4</property>
   <property name="mlt_type">transition</property>
   <property name="mlt_service">mix</property>
   <property name="always_active">1</property>
   <property name="combine">1</property>
   <property name="internal_added">237</property>
  </transition>
  <transition id="transition3">
   <property name="a_track">1</property>
   <property name="b_track">5</property>
   <property name="mlt_type">transition</property>
   <property name="mlt_service">mix</property>
   <property name="always_active">1</property>
   <property name="combine">1</property>
   <property name="internal_added">237</property>
  </transition>
  <transition id="transition4">
   <property name="a_track">1</property>
   <property name="b_track">6</property>
   <property name="mlt_type">transition</property>
   <property name="mlt_service">mix</property>
   <property name="always_active">1</property>
   <property name="internal_added">237</property>
   <property name="combine">1</property>
  </transition>
  <transition id="transition5">
   <property name="a_track">1</property>
   <property name="b_track">7</property>
   <property name="mlt_type">transition</property>
   <property name="mlt_service">mix</property>
   <property name="always_active">1</property>
   <property name="internal_added">237</property>
   <property name="combine">1</property>
  </transition>
  <transition in="1370" out="1828" id="transition6">
   <property name="a_track">4</property>
   <property name="b_track">5</property>
   <property name="start">0/0:100%x100%</property>
   <property name="factory">loader</property>
   <property name="aligned">1</property>
   <property name="progressive">1</property>
   <property name="mlt_type">transition</property>
   <property name="mlt_service">composite</property>
   <property name="automatic">1</property>
   <property name="kdenlive_id">composite</property>
   <property name="force_track">1</property>
   <property name="deinterlace">0</property>
   <property name="distort">0</property>
   <property name="fill">1</property>
   <property name="geometry">1947/794:749x421:100;1=1851/794:749x421:100;12=1069/794:749x421:100;112=1069/794:749x421:100;130=1069/472:749x421:100;431=1069/472:749x421:100;444=1069/794:749x421:100;456=1864/794:749x421:100;457=1961/794:749x421:100</property>
   <property name="luma_invert">0</property>
   <property name="operator">over</property>
   <property name="softness">0</property>
  </transition>
  <transition in="131" out="147" id="transition7">
   <property name="a_track">4</property>
   <property name="b_track">6</property>
   <property name="start">0/0:100%x100%</property>
   <property name="factory">loader</property>
   <property name="aligned">1</property>
   <property name="progressive">1</property>
   <property name="mlt_type">transition</property>
   <property name="mlt_service">composite</property>
   <property name="automatic">1</property>
   <property name="kdenlive_id">composite</property>
   <property name="force_track">1</property>
   <property name="deinterlace">0</property>
   <property name="distort">0</property>
   <property name="fill">1</property>
   <property name="geometry">0/0:1920x1080:0;16=0/0:1920x1080:100</property>
   <property name="luma_invert">0</property>
   <property name="operator">over</property>
   <property name="softness">0</property>
   <property name="luma"/>
  </transition>
  <transition in="1251" out="1281" id="transition8">
   <property name="a_track">4</property>
   <property name="b_track">6</property>
   <property name="start">0/0:100%x100%</property>
   <property name="factory">loader</property>
   <property name="aligned">1</property>
   <property name="progressive">1</property>
   <property name="mlt_type">transition</property>
   <property name="mlt_service">composite</property>
   <property name="automatic">1</property>
   <property name="kdenlive_id">composite</property>
   <property name="force_track">1</property>
   <property name="deinterlace">0</property>
   <property name="distort">0</property>
   <property name="fill">1</property>
   <property name="geometry">0/0:1920x1080:100;30=0/0:1920x1080:0</property>
   <property name="luma_invert">0</property>
   <property name="operator">over</property>
   <property name="softness">0</property>
  </transition>
  <transition in="1370" out="1828" id="transition9">
   <property name="a_track">4</property>
   <property name="b_track">6</property>
   <property name="start">0/0:100%x100%</property>
   <property name="factory">loader</property>
   <property name="aligned">1</property>
   <property name="progressive">1</property>
   <property name="mlt_type">transition</property>
   <property name="mlt_service">composite</property>
   <property name="automatic">1</property>
   <property name="kdenlive_id">composite</property>
   <property name="force_track">1</property>
   <property name="deinterlace">0</property>
   <property name="distort">0</property>
   <property name="fill">1</property>
   <property name="geometry">-728/794:749x421:100;12=125/794:749x421:100;112=125/794:749x421:100;130=125/472:749x421:100;431=125/472:749x421:100;444=125/794:749x421:100;457=-715/794:749x421:100</property>
   <property name="luma_invert">0</property>
   <property name="operator">over</property>
   <property name="softness">0</property>
  </transition>
  <transition out="146" id="transition10">
   <property name="a_track">4</property>
   <property name="b_track">7</property>
   <property name="start">0/0:100%x100%</property>
   <property name="factory">loader</property>
   <property name="aligned">1</property>
   <property name="progressive">1</property>
   <property name="mlt_type">transition</property>
   <property name="mlt_service">composite</property>
   <property name="automatic">1</property>
   <property name="kdenlive_id">composite</property>
   <property name="force_track">1</property>
   <property name="deinterlace">0</property>
   <property name="distort">0</property>
   <property name="fill">1</property>
   <property name="geometry">0/0:1920x1080:100</property>
   <property name="luma_invert">0</property>
   <property name="operator">over</property>
   <property name="softness">0</property>
   <property name="luma"/>
  </transition>
  <transition in="147" out="1250" id="transition11">
   <property name="a_track">4</property>
   <property name="b_track">7</property>
   <property name="start">0/0:100%x100%</property>
   <property name="factory">loader</property>
   <property name="aligned">1</property>
   <property name="progressive">1</property>
   <property name="mlt_type">transition</property>
   <property name="mlt_service">composite</property>
   <property name="automatic">1</property>
   <property name="kdenlive_id">composite</property>
   <property name="force_track">1</property>
   <property name="deinterlace">0</property>
   <property name="distort">0</property>
   <property name="fill">1</property>
   <property name="geometry">0%/0%:100%x100%:100</property>
   <property name="luma_invert">0</property>
   <property name="operator">over</property>
   <property name="softness">0</property>
  </transition>
  <transition in="1251" out="2061" id="transition12">
   <property name="a_track">4</property>
   <property name="b_track">7</property>
   <property name="start">0/0:100%x100%</property>
   <property name="factory">loader</property>
   <property name="aligned">1</property>
   <property name="progressive">1</property>
   <property name="mlt_type">transition</property>
   <property name="mlt_service">composite</property>
   <property name="automatic">1</property>
   <property name="kdenlive_id">composite</property>
   <property name="force_track">1</property>
   <property name="deinterlace">0</property>
   <property name="distort">0</property>
   <property name="fill">1</property>
   <property name="geometry">0%/0%:100%x100%:100</property>
   <property name="luma_invert">0</property>
   <property name="operator">over</property>
   <property name="softness">0</property>
  </transition>
 </tractor>
 <kdenlivedoc profile="atsc_1080p_30" kdenliveversion="0.9.10" version="0,88" projectfolder="$CURRENTPATH">
  <customeffects/>
  <documentproperties proxyimageminsize="2000" zonein="0" enableproxy="0" zoneout="100" generateproxy="0" zoom="6" verticalzoom="1" proxyextension="ts" position="22" documentid="1457863746928" generateimageproxy="0" proxyminsize="1000" proxyparams="-f mpegts -acodec libmp3lame -ac 2 -ab 128k -ar 48000 -vcodec mpeg2video -g 5 -deinterlace -s 640x360 -vb 700k"/>
  <documentmetadata/>
  <documentnotes>&lt;!DOCTYPE HTML PUBLIC "-//W3C//DTD HTML 4.0//EN" "http://www.w3.org/TR/REC-html40/strict.dtd">
&lt;html>&lt;head>&lt;meta name="qrichtext" content="1" />&lt;style type="text/css">
p, li { white-space: pre-wrap; }
&lt;/style>&lt;/head>&lt;body style=" font-family:'Sans Serif'; font-size:8pt; font-weight:400; font-style:normal;">
&lt;p style="-qt-paragraph-type:empty; margin-top:0px; margin-bottom:0px; margin-left:0px; margin-right:0px; -qt-block-indent:0; text-indent:0px;">&lt;br />&lt;/p>&lt;/body>&lt;/html></documentnotes>
  <profileinfo width="1920" display_aspect_den="9" frame_rate_den="1" description="HD 1080p 30 fps" height="1080" frame_rate_num="30" display_aspect_num="16" progressive="1" sample_aspect_num="1" sample_aspect_den="1"/>
  <tracksinfo>
   <trackinfo blind="1" mute="0" locked="0" trackname="Audio 3" type="audio"/>
   <trackinfo blind="1" mute="0" locked="0" trackname="Audio 2" type="audio"/>
   <trackinfo blind="1" mute="0" locked="0" trackname="Audio 1" type="audio"/>
   <trackinfo blind="0" mute="0" locked="0" trackname="Video 4"/>
   <trackinfo blind="0" mute="0" locked="0" trackname="Video 3"/>
   <trackinfo blind="0" mute="0" locked="0" trackname="Video 2"/>
   <trackinfo blind="0" mute="0" locked="0" trackname="Video 1"/>
  </tracksinfo>
  <folder id="1" name="Intro"/>
  <folder id="2" name="Outro"/>
  <kdenlive_producer id="1" analysisdata="" name="Intro" softness="0" crop="0" in="0" resource="slideshows/0/.all.png" luma_duration="00:00:01:00" duration="148" groupid="1" ttl="1" aspect_ratio="1" out="147" fade="0" groupname="Intro" type="7" loop="0" frame_size="1920x1080"/>
  <kdenlive_producer id="5" analysisdata="" name="Outro" softness="0" crop="0" in="0" thumbnail="100" resource="slideshows/1/.all.png" luma_duration="00:00:01:00" duration="811" groupid="2" ttl="1" aspect_ratio="1" out="810" fade="0" groupname="Outro" type="7" loop="0" frame_size="1920x1080"/>
  <kdenlive_producer duration="150" frame_size="1920x1080" thumbnail="100" in="0" analysisdata="" file_size="48092" aspect_ratio="1" out="149" file_hash="805389b59ea91f4fe1b0e0bc4f2b31b9" type="5" id="6" name="Overlay.png" resource="slideshows/0/Overlay.png"/>
  <kdenlive_producer audio_max="63" audiocodec="FLAC (Free Lossless Audio Codec)" channels="2" duration="157" frame_size="1920x1080" frequency="44100" analysisdata="" file_size="919379" groupid="1" aspect_ratio="0" groupname="Intro" file_hash="88625711bc0eed9aadf32561025eb8ac" type="1" id="7" name="Intro.flac" resource="sounds/Intro.flac">
   <metaproperty tool="" name="meta.attr.SOFTWARE">FL Studio 11</metaproperty>
   <metaproperty tool="" name="meta.attr.TITLE">amk13131 - Short Dance (Jingle version)</metaproperty>
   <metaproperty tool="" name="meta.attr.track">1</metaproperty>
  </kdenlive_producer>
  <kdenlive_producer audio_max="63" audiocodec="FLAC (Free Lossless Audio Codec)" channels="2" duration="893" frame_size="1920x1080" frequency="44100" analysisdata="" file_size="5703636" groupid="2" aspect_ratio="0" groupname="Outro" file_hash="871337b449aa8125f9a101959db71c91" type="1" id="8" name="Outro.flac" resource="sounds/Outro.flac">
   <metaproperty tool="" name="meta.attr.SOFTWARE">FL Studio 11</metaproperty>
   <metaproperty tool="" name="meta.attr.TITLE">amk13131 - Short Dance (Version#1 30-seconds)</metaproperty>
   <metaproperty tool="" name="meta.attr.track">2</metaproperty>
  </kdenlive_producer>
  <kdenlive_producer audio_max="50" audiocodec="PCM signed 16-bit little-endian" channels="1" duration="28" frame_size="1920x1080" frequency="11024" analysisdata="" file_size="20608" groupid="1" aspect_ratio="0" groupname="Intro" file_hash="640e044da6c978e70f0684dc4db890d5" type="1" id="9" name="whoosh.wav" resource="sounds/whoosh.wav"/>
  <kdenlive_producer duration="150" frame_size="1920x1080" in="0" analysisdata="" groupid="1" aspect_ratio="1" mlt_service="colour" out="149" groupname="Intro" type="4" colour="0xffffffff" id="10" name="Hintergrund"/>
  <kdenlive_producer duration="150" frame_size="1920x1080" in="0" analysisdata="" aspect_ratio="1" mlt_service="colour" out="149" type="4" colour="0xff8000ff" id="11" name="Dummy-Video"/>
  <kdenlive_producer duration="150" frame_size="1920x1080" in="0" analysisdata="" groupid="2" aspect_ratio="1" mlt_service="colour" out="149" groupname="Outro" type="4" colour="0x0000ffff" id="12" name="Dummy 1"/>
  <kdenlive_producer duration="150" frame_size="1920x1080" in="0" analysisdata="" groupid="2" aspect_ratio="1" mlt_service="colour" out="149" groupname="Outro" type="4" colour="0xffff00ff" id="13" name="Dummy 2"/>
  <markers/>
  <groups>
   <group>
    <clipitem track="0" position="1251"/>
    <transitionitem track="1" position="1251"/>
    <clipitem track="3" position="1251"/>
    <transitionitem track="0" position="1251"/>
    <transitionitem track="2" position="1370"/>
    <clipitem track="6" position="1169"/>
    <transitionitem track="1" position="1370"/>
   </group>
   <group>
    <clipitem track="5" position="0"/>
    <clipitem track="3" position="0"/>
    <clipitem track="6" position="15"/>
    <clipitem track="0" position="0"/>
    <transitionitem track="0" position="0"/>
    <transitionitem track="1" position="131"/>
   </group>
   <group>
    <clipitem track="0" position="147"/>
    <transitionitem track="0" position="147"/>
   </group>
  </groups>
 </kdenlivedoc>
</mlt>
